<svg width="107" height="100" viewBox="0 0 107 100" fill="none" xmlns="http://www.w3.org/2000/svg">
<rect x="0.5" width="106" height="100" rx="50" fill="#F7F8FE"/>
<g clip-path="url(#clip0_35_25525)">
<path d="M34.9255 54.0859C34.3349 55.1274 34.0637 56.3196 34.1457 57.5141C34.1763 57.9523 34.3436 60.186 36.2497 61.6044C37.1926 62.2897 38.3334 62.6488 39.4988 62.6269C40.5713 65.0293 41.7966 67.3604 43.1674 69.6059C44.8897 72.4333 45.7851 73.847 47.3802 75.025C49.2529 76.3536 51.4632 77.1255 53.7559 77.2516C56.1773 77.4125 58.5952 76.8908 60.7349 75.746C63.1994 74.4101 64.4576 72.643 66.154 70.2727C67.862 67.8704 69.2194 65.2373 70.1854 62.4526C71.1758 62.3699 72.1188 61.9924 72.8926 61.3688C74.3417 60.1483 74.5891 58.2798 74.8176 56.5575C75.0462 54.8351 74.7681 54.6231 74.8789 52.5874C75.0014 50.2878 75.4208 49.3971 75.8402 47.1117C76.2468 44.9505 76.4284 42.7531 76.3821 40.5545C76.1229 34.7984 71.8559 30.5008 70.8475 29.4806C65.6663 24.2711 59.2458 23.6891 56.1027 23.4135C53.0939 23.1331 47.1045 22.5912 43.1674 26.3539C42.7253 26.7772 42.3231 27.2402 41.9657 27.737C40.3726 27.9887 38.8531 28.5836 37.5126 29.4806C34.0066 31.8626 33.0147 35.6655 32.461 37.786C30.5077 45.2597 33.7545 51.9229 34.9255 54.0859Z" fill="white" stroke="#4540DB" stroke-width="1.64931" stroke-linecap="round" stroke-linejoin="round"/>
<path d="M74.8674 54.3261C75.0559 54.3261 75.1242 51.9841 75.5742 48.3768C75.9394 45.4693 76.1609 44.8638 76.2811 43.6645C76.7829 38.8556 74.693 34.6922 74.0969 33.5849C70.9774 27.8146 65.4098 25.647 62.858 24.6527C60.3959 23.6843 55.7189 21.9384 50.017 23.3615C47.0983 24.1055 44.3963 25.5279 42.1309 27.513C40.5757 27.8099 39.0969 28.419 37.7838 29.3037C34.424 31.5892 33.3095 35.0174 32.6969 36.9023C31.3068 41.1787 31.9147 44.8214 32.2539 46.7157C32.6943 49.1669 33.5298 51.5302 34.7279 53.7135C34.4351 50.5042 34.8237 47.2692 35.8683 44.2205C36.5751 42.173 37.3267 40.1303 39.3577 38.8862C40.7714 38.0168 42.1851 37.9437 43.1677 37.8825C46.8833 37.7034 49.7649 39.5318 51.0278 40.4507L47.7009 34.7229C51.8067 34.555 55.8865 35.4484 59.5465 37.3168C63.2064 39.1851 66.3229 41.9654 68.5953 45.3892C69.1809 45.0698 69.6959 44.6352 70.1093 44.1117C70.5227 43.5882 70.826 42.9864 71.0009 42.3427C71.6041 39.9583 70.0585 38.1322 69.9171 37.9697C71.1298 39.5274 72.1283 41.2407 72.8858 43.0637C75.2797 48.841 74.5893 54.3261 74.8674 54.3261Z" fill="#BEBCFA" stroke="#4540DB" stroke-width="1.64931" stroke-linecap="round" stroke-linejoin="round"/>
<path d="M41.7258 51.0769C42.5315 50.3508 43.4907 49.8159 44.532 49.5125C47.1685 48.7585 49.3998 49.814 49.9865 50.1156" stroke="#4540DB" stroke-width="1.64931" stroke-linecap="round" stroke-linejoin="round"/>
<path d="M58.207 50.1158C59.6228 49.2495 61.303 48.9216 62.9405 49.1922C64.3264 49.4424 65.6011 50.1147 66.5902 51.1172" stroke="#4540DB" stroke-width="1.64931" stroke-linecap="round" stroke-linejoin="round"/>
<path d="M53.4758 51.3574L52.5923 59.0998L57.3659 58.8641" stroke="#4540DB" stroke-width="1.64931" stroke-linecap="round" stroke-linejoin="round"/>
<path d="M50.6675 63.3502L58.9305 71.2904" stroke="#4540DB" stroke-width="1.64931" stroke-linecap="round" stroke-linejoin="round"/>
<path d="M59.0905 62.9495C56.0715 65.7424 53.0501 68.536 50.0264 71.3304" stroke="#4540DB" stroke-width="1.64931" stroke-linecap="round" stroke-linejoin="round"/>
<path d="M46.4567 53.5934C47.4196 53.5934 48.2002 52.8128 48.2002 51.8498C48.2002 50.8869 47.4196 50.1063 46.4567 50.1063C45.4938 50.1063 44.7131 50.8869 44.7131 51.8498C44.7131 52.8128 45.4938 53.5934 46.4567 53.5934Z" fill="#4540DB" stroke="#4540DB" stroke-width="1.64931" stroke-linecap="round" stroke-linejoin="round"/>
<path d="M61.6161 53.3531C62.5791 53.3531 63.3597 52.5725 63.3597 51.6095C63.3597 50.6466 62.5791 49.866 61.6161 49.866C60.6532 49.866 59.8726 50.6466 59.8726 51.6095C59.8726 52.5725 60.6532 53.3531 61.6161 53.3531Z" fill="#4540DB" stroke="#4540DB" stroke-width="1.64931" stroke-linecap="round" stroke-linejoin="round"/>
</g>
<defs>
<clipPath id="clip0_35_25525">
<rect width="46.2136" height="56.1001" fill="white" transform="translate(31 22)"/>
</clipPath>
</defs>
</svg>
