<svg width="107" height="100" viewBox="0 0 107 100" fill="none" xmlns="http://www.w3.org/2000/svg">
<rect x="0.5" width="106" height="100" rx="50" fill="#F7F8FE"/>
<g clip-path="url(#clip0_35_25573)">
<path d="M48.5105 31.2113C51.9059 31.2113 54.6583 28.4589 54.6583 25.0636C54.6583 21.6683 51.9059 18.9158 48.5105 18.9158C45.1152 18.9158 42.3628 21.6683 42.3628 25.0636C42.3628 28.4589 45.1152 31.2113 48.5105 31.2113Z" fill="white" stroke="#4540DB" stroke-width="1.83202" stroke-linecap="round" stroke-linejoin="round"/>
<path d="M42.8231 57.8804C41.197 64.5385 39.5709 71.1983 37.9447 77.8599C37.8553 78.4316 37.9661 79.0166 38.2585 79.516C38.5508 80.0153 39.0067 80.3983 39.549 80.6001C40.1282 80.7995 40.7603 80.7803 41.3262 80.546C41.8921 80.3117 42.3529 79.8786 42.6216 79.3282C44.1082 73.7815 45.6008 68.2357 47.0996 62.6908C47.6167 62.5136 48.1742 62.4908 48.7039 62.6253C49.9366 62.9577 50.8657 64.2297 51.0411 65.8314C52.334 70.3539 53.626 74.8755 54.9171 79.3962C54.9721 79.4669 55.8593 80.5478 57.2569 80.3986C57.7579 80.3394 58.2315 80.1382 58.6219 79.8187C59.0124 79.4992 59.3033 79.0747 59.4605 78.5954L56.0582 63.6251L48.3035 55.0722L48.437 42.9128L57.2569 53.3317C58.4948 54.1561 60.073 54.075 61.0649 53.1983C62.1903 52.2011 62.0201 50.6622 62.0018 50.5235L48.5705 35.3439C47.6414 34.2054 46.16 33.8599 45.0948 34.4252C44.0872 34.9644 43.8569 36.1212 43.8255 36.2965C43.4905 43.492 43.1564 50.6866 42.8231 57.8804Z" fill="white" stroke="#4540DB" stroke-width="1.83202" stroke-linecap="round" stroke-linejoin="round"/>
<path d="M43.3257 57.111L50.0859 63.6697" stroke="#4540DB" stroke-width="1.83202" stroke-linecap="round" stroke-linejoin="round"/>
</g>
<path d="M62 53.9405L81.355 72.497L62 53.9405Z" fill="white"/>
<path d="M62 53.9405L81.355 72.497" stroke="#4540DB" stroke-width="1.83202" stroke-linecap="round" stroke-linejoin="round"/>
<defs>
<clipPath id="clip0_35_25573">
<rect width="33" height="63.6576" fill="white" transform="translate(37 18)"/>
</clipPath>
</defs>
</svg>
