<svg width="107" height="100" viewBox="0 0 107 100" fill="none" xmlns="http://www.w3.org/2000/svg">
<rect x="0.5" width="106" height="100" rx="50" fill="#F7F8FE"/>
<g clip-path="url(#clip0_35_25491)">
<path d="M50.5372 27.5764V34.3542C49.3572 34.3653 48.2281 34.8367 47.3905 35.6679C46.5528 36.4992 46.0729 37.6246 46.0528 38.8045C46.0327 39.9844 46.4741 41.1255 47.2829 41.9848C48.0918 42.8441 49.2042 43.3536 50.3831 43.4048C50.4204 45.6135 50.459 47.8214 50.4992 50.0286L45.3757 50.1068C45.9762 51.5065 45.7619 53.0447 44.8376 53.9958C44.7349 54.1007 43.6946 55.1343 42.3328 54.8888C40.9709 54.6432 40.1963 53.2613 40.0645 52.1473C39.9888 51.4397 40.1363 50.7262 40.4865 50.1068L35.2892 50.0666L35.249 43.3289C37.1623 43.1726 38.7942 42.0407 39.4484 40.4021C39.8605 39.3212 39.8462 38.124 39.4082 37.0533C38.725 35.4482 37.0975 34.3743 35.2111 34.2404L35.1709 27.5764L40.2543 27.5384C40.0463 27.1088 39.9287 26.641 39.9087 26.1641C39.8888 25.6872 39.9669 25.2112 40.1382 24.7657C40.2141 24.5826 40.8839 23.0154 42.4868 22.8011C43.1019 22.7314 43.7236 22.8523 44.2678 23.1473C44.812 23.4424 45.2525 23.8974 45.5297 24.4509C46.2977 25.9757 45.3846 27.4558 45.3377 27.5317L50.5372 27.5764Z" fill="#BEBCFA" stroke="#4540DB" stroke-width="1.56275" stroke-miterlimit="10"/>
<path d="M76.4184 46.5325H69.6383C69.6178 45.359 69.1424 44.2393 68.3122 43.4095C67.4821 42.5797 66.3621 42.1048 65.1886 42.0848C64.015 42.0648 62.8796 42.5014 62.0217 43.3024C61.1637 44.1034 60.6505 45.2063 60.59 46.3785L53.9662 46.4946C53.9394 44.7875 53.9134 43.0796 53.8881 41.371C52.4883 41.9716 50.9501 41.7572 49.999 40.833C49.8941 40.7303 48.8582 39.6899 49.106 38.3281C49.3538 36.9663 50.7246 36.1916 51.8409 36.0577C52.5484 35.9819 53.2619 36.1294 53.8814 36.4796C53.8948 34.7472 53.9074 33.0148 53.9193 31.2823L60.6592 31.2422C60.8155 33.1554 61.9474 34.7874 63.586 35.4415C64.6669 35.8539 65.8641 35.8395 66.9348 35.4013C68.5399 34.7182 69.6138 33.0907 69.7455 31.2042L76.4095 31.1663C76.4199 32.8615 76.4326 34.5559 76.4475 36.2497C76.8771 36.0416 77.3448 35.9239 77.8218 35.9039C78.2987 35.8839 78.7747 35.9621 79.2202 36.1336C79.4033 36.2095 80.9683 36.8792 81.1848 38.4822C81.2539 39.098 81.1321 39.7202 80.8358 40.2645C80.5395 40.8088 80.083 41.2488 79.5283 41.5251C78.0035 42.293 76.5211 41.3799 76.4475 41.3331C76.44 43.0655 76.4303 44.7986 76.4184 46.5325Z" stroke="#4540DB" stroke-width="1.56275" stroke-miterlimit="10"/>
<path d="M57.4624 72.4497V65.6786C58.636 65.6581 59.7557 65.1826 60.5855 64.3525C61.4152 63.5223 61.8902 62.4024 61.9102 61.2288C61.9301 60.0552 61.4936 58.9198 60.6925 58.0619C59.8915 57.204 58.7886 56.6907 57.6164 56.6302C57.5777 54.4201 57.5391 52.2114 57.5004 50.0042L62.6217 49.9283C62.0212 48.5285 62.2355 46.9903 63.162 46.0393C63.2624 45.9343 64.3028 44.8985 65.6646 45.1463C67.0264 45.3941 67.8011 46.776 67.9373 47.8922C68.0122 48.6 67.8639 49.3135 67.5131 49.9327L72.7126 49.9707L72.7506 56.7106C70.8395 56.8669 69.2076 57.9988 68.5535 59.6374C68.1399 60.7179 68.1535 61.9153 68.5914 62.9862C69.2768 64.5913 70.9043 65.6652 72.7907 65.7969L72.8287 72.4609L67.7453 72.4988C67.9523 72.9288 68.0693 73.3965 68.0893 73.8733C68.1092 74.35 68.0317 74.8258 67.8614 75.2716C67.7855 75.4547 67.1135 77.0197 65.5106 77.2362C64.8943 77.3039 64.2722 77.181 63.7281 76.884C63.1839 76.587 62.744 76.1302 62.4677 75.5752C61.7019 74.0504 62.6128 72.568 62.6619 72.4944L57.4624 72.4497Z" fill="#BEBCFA" stroke="#4540DB" stroke-width="1.56275" stroke-miterlimit="10"/>
<path d="M31.581 53.5024H38.3588C38.3699 54.6825 38.8413 55.8115 39.6725 56.6492C40.5038 57.4868 41.6292 57.9668 42.8091 57.9868C43.989 58.0069 45.1301 57.5655 45.9894 56.7567C46.8487 55.9478 47.3582 54.8355 47.4094 53.6565L54.0332 53.5404C54.06 55.2475 54.086 56.9546 54.1113 58.6617C55.5111 58.0612 57.0493 58.2755 58.0004 59.202C58.1053 59.3025 59.1389 60.3428 58.8934 61.7046C58.6478 63.0665 57.2726 63.8411 56.1585 63.9773C55.4508 64.0526 54.7372 63.9042 54.118 63.5531L54.0779 68.7526L47.3402 68.7906C47.1839 66.8796 46.052 65.2476 44.4134 64.5935C43.3329 64.1802 42.1355 64.1937 41.0646 64.6314C39.4595 65.3168 38.3856 66.9443 38.2517 68.8308L31.581 68.8777C31.5676 67.1824 31.5549 65.488 31.543 63.7943C31.113 64.0011 30.6452 64.1179 30.1684 64.1375C29.6916 64.1571 29.2158 64.079 28.7703 63.9081C28.5872 63.8344 27.02 63.1625 26.8057 61.5595C26.7344 60.943 26.8545 60.3195 27.1496 59.7736C27.4447 59.2277 27.9006 58.7857 28.4555 58.5077C29.9803 57.742 31.4604 58.6528 31.5363 58.7019C31.5542 56.968 31.5691 55.2349 31.581 53.5024Z" stroke="#4540DB" stroke-width="1.56275" stroke-miterlimit="10"/>
</g>
<g clip-path="url(#clip1_35_25491)">
<path d="M50.5372 27.5764V34.3542C49.3572 34.3653 48.2281 34.8367 47.3905 35.6679C46.5528 36.4992 46.0729 37.6246 46.0528 38.8045C46.0327 39.9844 46.4741 41.1255 47.2829 41.9848C48.0918 42.8441 49.2042 43.3536 50.3831 43.4048C50.4204 45.6135 50.459 47.8214 50.4992 50.0286L45.3757 50.1068C45.9762 51.5065 45.7619 53.0447 44.8376 53.9958C44.7349 54.1007 43.6946 55.1343 42.3328 54.8888C40.9709 54.6432 40.1963 53.2613 40.0645 52.1473C39.9888 51.4397 40.1363 50.7262 40.4865 50.1068L35.2892 50.0666L35.249 43.3289C37.1623 43.1726 38.7942 42.0407 39.4484 40.4021C39.8605 39.3212 39.8462 38.124 39.4082 37.0533C38.725 35.4482 37.0975 34.3743 35.2111 34.2404L35.1709 27.5764L40.2543 27.5384C40.0463 27.1088 39.9287 26.641 39.9087 26.1641C39.8888 25.6872 39.9669 25.2112 40.1382 24.7657C40.2141 24.5826 40.8839 23.0154 42.4868 22.8011C43.1019 22.7314 43.7236 22.8523 44.2678 23.1473C44.812 23.4424 45.2525 23.8974 45.5297 24.4509C46.2977 25.9757 45.3846 27.4558 45.3377 27.5317L50.5372 27.5764Z" fill="#BEBCFA" stroke="#4540DB" stroke-width="1.56275" stroke-miterlimit="10"/>
<path d="M76.4184 46.5325H69.6383C69.6178 45.359 69.1424 44.2393 68.3122 43.4095C67.4821 42.5797 66.3621 42.1048 65.1886 42.0848C64.015 42.0648 62.8796 42.5014 62.0217 43.3024C61.1637 44.1034 60.6505 45.2063 60.59 46.3785L53.9662 46.4946C53.9394 44.7875 53.9134 43.0796 53.8881 41.371C52.4883 41.9716 50.9501 41.7572 49.999 40.833C49.8941 40.7303 48.8582 39.6899 49.106 38.3281C49.3538 36.9663 50.7246 36.1916 51.8409 36.0577C52.5484 35.9819 53.2619 36.1294 53.8814 36.4796C53.8948 34.7472 53.9074 33.0148 53.9193 31.2823L60.6592 31.2422C60.8155 33.1554 61.9474 34.7874 63.586 35.4415C64.6669 35.8539 65.8641 35.8395 66.9348 35.4013C68.5399 34.7182 69.6138 33.0907 69.7455 31.2042L76.4095 31.1663C76.4199 32.8615 76.4326 34.5559 76.4475 36.2497C76.8771 36.0416 77.3448 35.9239 77.8218 35.9039C78.2987 35.8839 78.7747 35.9621 79.2202 36.1336C79.4033 36.2095 80.9683 36.8792 81.1848 38.4822C81.2539 39.098 81.1321 39.7202 80.8358 40.2645C80.5395 40.8088 80.083 41.2488 79.5283 41.5251C78.0035 42.293 76.5211 41.3799 76.4475 41.3331C76.44 43.0655 76.4303 44.7986 76.4184 46.5325Z" stroke="#4540DB" stroke-width="1.56275" stroke-miterlimit="10"/>
<path d="M57.4624 72.4497V65.6786C58.636 65.6581 59.7557 65.1826 60.5855 64.3525C61.4152 63.5223 61.8902 62.4024 61.9102 61.2288C61.9301 60.0552 61.4936 58.9198 60.6925 58.0619C59.8915 57.204 58.7886 56.6907 57.6164 56.6302C57.5777 54.4201 57.5391 52.2114 57.5004 50.0042L62.6217 49.9283C62.0212 48.5285 62.2355 46.9903 63.162 46.0393C63.2624 45.9343 64.3028 44.8985 65.6646 45.1463C67.0264 45.3941 67.8011 46.776 67.9373 47.8922C68.0122 48.6 67.8639 49.3135 67.5131 49.9327L72.7126 49.9707L72.7506 56.7106C70.8395 56.8669 69.2076 57.9988 68.5535 59.6374C68.1399 60.7179 68.1535 61.9153 68.5914 62.9862C69.2768 64.5913 70.9043 65.6652 72.7907 65.7969L72.8287 72.4609L67.7453 72.4988C67.9523 72.9288 68.0693 73.3965 68.0893 73.8733C68.1092 74.35 68.0317 74.8258 67.8614 75.2716C67.7855 75.4547 67.1135 77.0197 65.5106 77.2362C64.8943 77.3039 64.2722 77.181 63.7281 76.884C63.1839 76.587 62.744 76.1302 62.4677 75.5752C61.7019 74.0504 62.6128 72.568 62.6619 72.4944L57.4624 72.4497Z" fill="#BEBCFA" stroke="#4540DB" stroke-width="1.56275" stroke-miterlimit="10"/>
<path d="M31.581 53.5024H38.3588C38.3699 54.6825 38.8413 55.8115 39.6725 56.6492C40.5038 57.4868 41.6292 57.9668 42.8091 57.9868C43.989 58.0069 45.1301 57.5655 45.9894 56.7567C46.8487 55.9478 47.3582 54.8355 47.4094 53.6565L54.0332 53.5404C54.06 55.2475 54.086 56.9546 54.1113 58.6617C55.5111 58.0612 57.0493 58.2755 58.0004 59.202C58.1053 59.3025 59.1389 60.3428 58.8934 61.7046C58.6478 63.0665 57.2726 63.8411 56.1585 63.9773C55.4508 64.0526 54.7372 63.9042 54.118 63.5531L54.0779 68.7526L47.3402 68.7906C47.1839 66.8796 46.052 65.2476 44.4134 64.5935C43.3329 64.1802 42.1355 64.1937 41.0646 64.6314C39.4595 65.3168 38.3856 66.9443 38.2517 68.8308L31.581 68.8777C31.5676 67.1824 31.5549 65.488 31.543 63.7943C31.113 64.0011 30.6452 64.1179 30.1684 64.1375C29.6916 64.1571 29.2158 64.079 28.7703 63.9081C28.5872 63.8344 27.02 63.1625 26.8057 61.5595C26.7344 60.943 26.8545 60.3195 27.1496 59.7736C27.4447 59.2277 27.9006 58.7857 28.4555 58.5077C29.9803 57.742 31.4604 58.6528 31.5363 58.7019C31.5542 56.968 31.5691 55.2349 31.581 53.5024Z" stroke="#4540DB" stroke-width="1.56275" stroke-miterlimit="10"/>
</g>
<defs>
<clipPath id="clip0_35_25491">
<rect width="56" height="56.0447" fill="white" transform="translate(26 21.9954)"/>
</clipPath>
<clipPath id="clip1_35_25491">
<rect width="56" height="56.0447" fill="white" transform="translate(26 21.9954)"/>
</clipPath>
</defs>
</svg>
